# xmcd
#
# Track frame offsets:
#	182
#	11782
#	45557
#	62657
#	94082
#	109282
#	120957
#	144557
#	156432
#	167982
#	185682
#	214382
#	223532
#	233857
#	244307
#	255907
#
# Disc length: 3552 seconds
#
# Revision: 6
# Processed by: cddbd v1.5.2PL0 Copyright (c) Steve Scherf et al.
# Submitted via: audiograbber 1.83.01
#
DISCID=e90dde10
DTITLE=Ray Charles - The Very Best Of Ray Charles
DYEAR=0
DGENRE=Blues
TTITLE0=Let The Good Times Roll
TTITLE1=Georgia On My Mind
TTITLE2=I Believe To My Soul
TTITLE3=Come Rain Or Come Shine
TTITLE4=Halleluja, I Love Her So
TTITLE5=Alexander's Ragtime Band
TTITLE6=I'm Gonna Move To The Outskirts
TTITLE7=Hit The Road Jack
TTITLE8=Margie
TTITLE9=I Wonder
TTITLE10=What'd I Say
TTITLE11=All To Myself Alone
TTITLE12=Ain't That Fine
TTITLE13=Hey Now
TTITLE14=Ray Charles Blues
TTITLE15=Sitting On Top Of The World
EXTD=ID3G: 0
EXTT0=
EXTT1=
EXTT2=
EXTT3=
EXTT4=
EXTT5=
EXTT6=
EXTT7=
EXTT8=
EXTT9=
EXTT10=
EXTT11=
EXTT12=
EXTT13=
EXTT14=
EXTT15=
PLAYORDER=
